<svg width="24" height="24" viewBox="0 0 24 24" fill="none" xmlns="http://www.w3.org/2000/svg">
<path d="M21.2308 6.5V5.375C21.2308 5.16775 21.0585 5 20.8462 5H13.5385C12.9108 5 12.3521 5.295 12.001 5.75C12.0005 5.75 12.0003 5.75 12 5.75C11.9997 5.75 11.9995 5.75 11.999 5.75C11.6479 5.295 11.0892 5 10.4615 5H3.15385C2.94154 5 2.76923 5.16775 2.76923 5.375V6.5H2V19.25H10.2818C10.7026 19.71 11.3179 20 12 20C12.6821 20 13.2972 19.71 13.7177 19.25H22V6.5H21.2308ZM3.53846 5.75H10.4615C11.0977 5.75 11.6154 6.25475 11.6154 6.875V14.0415C11.6154 14.2488 11.7877 14.4165 12 14.4165C12.2123 14.4165 12.3846 14.2488 12.3846 14.0415V6.875C12.3846 6.25475 12.9023 5.75 13.5385 5.75H20.4615V17.75H13.5385C12.911 17.75 12.3521 18.045 12.001 18.5C12.0008 18.5 12.0003 18.5 12 18.5C11.9997 18.5 11.9992 18.5 11.999 18.5C11.6479 18.045 11.089 17.75 10.4615 17.75H3.53846V5.75Z" fill="#EA5677"/>
</svg>
