<svg width="32" height="32" viewBox="0 0 32 32" fill="none" xmlns="http://www.w3.org/2000/svg">
<path d="M25.2507 21.409C24.8884 21.0468 24.4478 20.8114 23.9832 20.6969C27.5597 15.563 27.0637 8.43447 22.487 3.85858C19.9985 1.37038 16.6894 0 13.1701 0C9.65037 0 6.34189 1.37038 3.85326 3.85858C-1.28442 8.99509 -1.28442 17.3524 3.85326 22.4888C6.42196 25.0569 9.79632 26.3409 13.1701 26.3409C15.8073 26.3409 18.4424 25.5528 20.6947 23.9843C20.8092 24.4488 21.0445 24.8893 21.4068 25.2516L27.362 31.2055C27.8919 31.7353 28.5881 32 29.2839 32C29.9798 32 30.6759 31.7353 31.2058 31.2058C31.7178 30.6939 32 30.0115 32 29.2838C32 28.5567 31.7181 27.874 31.2058 27.3623L25.2507 21.409ZM4.93314 21.409C0.391402 16.8681 0.391402 9.47941 4.93314 4.93897C7.13343 2.73919 10.0585 1.52789 13.1704 1.52789C16.2818 1.52789 19.207 2.73953 21.407 4.93897C25.9487 9.47995 25.9487 16.8686 21.407 21.409C16.865 25.9492 9.4753 25.9492 4.93314 21.409Z" fill="#00A4BD"/>
</svg>
